<svg id="Layer_1" data-name="Layer 1" xmlns="http://www.w3.org/2000/svg" viewBox="0 0 221.33 186.33"><defs><style>.cls-1,.cls-2,.cls-5{fill:none;}.cls-1,.cls-2,.cls-3,.cls-4,.cls-5{stroke:#a180af;stroke-miterlimit:10;}.cls-1,.cls-3,.cls-4,.cls-5{stroke-width:3px;}.cls-2{stroke-width:3.08px;}.cls-3{fill:#fff;}.cls-4{fill:#a180af;}.cls-5{stroke-linecap:round;}</style></defs><title>icons</title><rect class="cls-1" x="2.45" y="101.89" width="216.24" height="23.08" rx="11.54" ry="11.54"/><path class="cls-2" d="M53,183H171c16,0,23.53-6.27,29.42-24.42,1.91-5.89,8.16-33.7,8.16-33.7H53l115,.1H12.5s6.25,27.81,8.16,33.7c5.89,18.15,13.43,24.42,29.42,24.42h118"/><ellipse class="cls-1" cx="110.49" cy="55.3" rx="29.38" ry="38.63"/><ellipse class="cls-1" cx="110.49" cy="89" rx="8.25" ry="4.92"/><path class="cls-1" d="M71.49,3S88.28,7.25,96.33,21.13c0,0-10.8,6.12-14.75,27.27C81.58,48.41,67.45,35.25,71.49,3Z"/><path class="cls-1" d="M149.64,3S132.85,7.25,124.8,21.13c0,0,10.8,6.12,14.75,27.27C139.55,48.41,153.68,35.25,149.64,3Z"/><path class="cls-1" d="M81.12,62.75s39-2,25.55-45.74"/><circle class="cls-3" cx="72.75" cy="102.75" r="14.75"/><circle class="cls-3" cx="147.48" cy="102.75" r="14.75"/><path class="cls-3" d="M78.1,89s.94-4.68,8-12.09"/><path class="cls-3" d="M142.89,90.13s-.94-4.68-8-12.09"/><circle class="cls-4" cx="95.3" cy="41.8" r="1.92"/><circle class="cls-4" cx="124.8" cy="41.8" r="1.92"/><circle class="cls-1" cx="46.84" cy="85.73" r="10.5"/><circle class="cls-1" cx="68.76" cy="72.15" r="8.21"/><circle class="cls-1" cx="150.11" cy="75.22" r="7.22"/><circle class="cls-1" cx="45.84" cy="59.04" r="5.72"/><circle class="cls-1" cx="54.17" cy="38.79" r="4.07"/><circle class="cls-1" cx="68.47" cy="51.41" r="4.07"/><circle class="cls-1" cx="177.04" cy="87.54" r="9.04"/><circle class="cls-1" cx="169.63" cy="64.67" r="7.41"/><circle class="cls-1" cx="155.29" cy="48.41" r="4.92"/><circle class="cls-1" cx="24.04" cy="88.13" r="4.92"/><circle class="cls-1" cx="191.01" cy="72.07" r="4.92"/><circle class="cls-1" cx="171.82" cy="39.88" r="3.82"/><circle class="cls-1" cx="195.93" cy="90.13" r="3.82"/><circle class="cls-1" cx="27.04" cy="67.15" r="3.82"/><path class="cls-5" d="M46.84,80.35s4.27-.51,4.72,3.74"/><path class="cls-5" d="M67.61,68.62s4.27-.51,4.72,3.74"/><path class="cls-5" d="M149.32,72.6a2.9,2.9,0,0,1,3.31,2.62"/><path class="cls-5" d="M169,62a2.9,2.9,0,0,1,3.31,2.62"/><path class="cls-5" d="M176,84s4.27-.51,4.72,3.74"/></svg>