<svg xmlns="http://www.w3.org/2000/svg" viewBox="0 0 209 213.27"><defs><style>.cls-1,.cls-2,.cls-3{fill:#fff;stroke:#a180af;}.cls-1,.cls-3{stroke-miterlimit:10;}.cls-1{stroke-width:3.07px;}.cls-2{stroke-linecap:round;stroke-linejoin:round;}.cls-2,.cls-3{stroke-width:2.72px;}</style></defs><title>icons</title><g id="Layer_2" data-name="Layer 2"><path class="cls-1" d="M32.21,16.49H64.55a4,4,0,0,0,4-4V9.79a4,4,0,0,0-4-4H18.41a13.84,13.84,0,0,0-13.8,13.8V196a13.8,13.8,0,0,0,27.6,0V96.91H64.55a4,4,0,0,0,4-4V90.2a4,4,0,0,0-4-4H32.21V76.8H64.55a4,4,0,0,0,4-4V70.1a4,4,0,0,0-4-4H32.21V56.7H64.55a4,4,0,0,0,4-4V50a4,4,0,0,0-4-4H32.21V36.59H64.55a4,4,0,0,0,4-4V29.89a4,4,0,0,0-4-4H32.21V16.49Z"/><path class="cls-2" d="M205,4.12s-75.94,117-96.19,137.9c-3.74,3.86-12.54,8.16-19.37,17.83-10.55,14.95-6.89,34.28,5,41.17s27.81,1.7,36.91-14.17a46.73,46.73,0,0,0,4.47-14.6c.91-7.1.56-12.5,1.79-18.59C139.74,143.23,205,4.12,205,4.12Z"/><ellipse class="cls-3" cx="109.7" cy="175.71" rx="20.97" ry="15.21" transform="translate(-97.32 182.86) rotate(-60)"/><path class="cls-2" d="M83.22,5.83s75.94,117,96.19,137.9c3.74,3.86,12.54,8.16,19.37,17.83,10.55,14.95,6.89,34.28-5,41.17s-27.81,1.7-36.91-14.17a46.73,46.73,0,0,1-4.47-14.6c-.91-7.1-.56-12.5-1.79-18.59C148.48,145,83.22,5.83,83.22,5.83Z"/><ellipse class="cls-3" cx="178.51" cy="177.43" rx="15.21" ry="20.97" transform="translate(-64.8 113.03) rotate(-30)"/><circle class="cls-2" cx="143.79" cy="112.93" r="5.21"/></g></svg>