<svg xmlns="http://www.w3.org/2000/svg" viewBox="0 0 127 204.77"><defs><style>.cls-1,.cls-2{fill:none;stroke:#a180af;stroke-miterlimit:10;stroke-width:3px;}.cls-2{stroke-linecap:round;}</style></defs><title>icons</title><g id="Layer_2" data-name="Layer 2"><rect class="cls-1" x="3.97" y="67.32" width="103" height="133.83" rx="18.64" ry="18.64"/><rect class="cls-1" x="33.47" y="46.35" width="44" height="20.97" rx="3.29" ry="3.29"/><path class="cls-1" d="M73.19,128.19c-7.33-6.67-17.58-6.58-17.58-6.58s-10.08-.08-17.42,6.58-9.33,14.33-9.33,18.67,1.67,8.92,5.21,11.21c4.56,2.95,11.48,1,15.46-1.54,2.62-1.66,4.41-2.67,6-2.71,1.75,0,3.54.86,6.38,2.71,4,2.57,10.9,4.49,15.46,1.54,3.54-2.29,5.21-6.87,5.21-11.21S80.52,134.86,73.19,128.19Z"/><ellipse class="cls-1" cx="24.93" cy="119.7" rx="8.33" ry="10.54"/><ellipse class="cls-1" cx="44.02" cy="104.14" rx="8.33" ry="10.54"/><ellipse class="cls-1" cx="66.02" cy="104.14" rx="8.33" ry="10.54"/><ellipse class="cls-1" cx="86" cy="119.7" rx="8.33" ry="10.54"/><rect class="cls-1" x="51.09" y="14.15" width="9.19" height="32.19"/><rect class="cls-1" x="41.69" y="2.98" width="52.64" height="10.88"/><path class="cls-1" d="M123.67,44.41c0,8.81-6.35,15.94-14.17,15.94S95.33,53.22,95.33,44.41,99.21,22,104.25,18.66C110.79,14.35,123.67,35.61,123.67,44.41Z"/><path class="cls-2" d="M112.29,33.4c2,3.75,3.88,7.75,4.38,12.25"/></g></svg>