<svg id="867bf628-f3b5-4294-a0e3-34492cffa757" data-name="Layer 1" xmlns="http://www.w3.org/2000/svg" viewBox="0 0 371.05 355.98"><title>logo-dark</title><path d="M24.69,132.45c0-19.09,13.94-41.74,31-50.34L163.24,27.79c17-8.6,44.92-8.6,62,0L332.77,82.1c17,8.6,31,31.26,31,50.34V234.22c0,19.09-13.94,41.74-31,50.34L225.19,338.88c-17,8.6-44.92,8.6-62,0L55.67,284.57c-17-8.6-31-31.26-31-50.34Z" transform="translate(-8.69 -5.35)" fill="none" stroke="#3ac0c8" stroke-miterlimit="10" stroke-width="31.99"/><path d="M98.86,302.37V187.9S97.06,168.37,112,158a259.78,259.78,0,0,1,30.59-17.89s14.89-6.06,21.91,3.17l16.57,28.19s6.2,7.48,13.22,7.48c5.77,0,12.75-7.09,12.75-7.09l16.86-28.57c7-9.22,21.45-3.4,21.45-3.4a265.93,265.93,0,0,1,31,18.13c15,10.34,13.16,29.88,13.16,29.88V302.37" transform="translate(-8.69 -5.35)" fill="none" stroke="#3ac0c8" stroke-miterlimit="10" stroke-width="30.84"/></svg>