<svg id="974ce2f2-e436-4c57-a169-06997f3e6af8" data-name="Layer 1" xmlns="http://www.w3.org/2000/svg" viewBox="0 0 131 104"><title>medium-dark</title><g id="fe3eaa01-eaea-4d6e-b0e4-7be0a79e071a" data-name="Page-1"><g id="9b8ebcd5-d4de-4cea-9548-f989e2390877" data-name="Monogram"><path id="3f1c38dc-b7eb-442f-9a52-d30beab7619d" data-name="Shape" d="M17.87,24.72a5.07,5.07,0,0,0-1.65-4.28L4,5.7V3.5H42L71.32,67.88,97.13,3.5h36.21V5.7l-10.46,10a3.06,3.06,0,0,0-1.16,2.93V92.34a3.06,3.06,0,0,0,1.16,2.93l10.21,10v2.2H81.72v-2.2L92.3,95c1-1,1-1.35,1-2.93V32.54L63.92,107.26h-4L25.7,32.54V82.62a6.91,6.91,0,0,0,1.9,5.75l13.76,16.69v2.2h-39v-2.2L16.09,88.36a6.66,6.66,0,0,0,1.77-5.75Z" transform="translate(-2.33 -3.5)" fill="#3ac5ca"/></g></g></svg>